<svg width="25" height="25" viewBox="0 0 25 25" fill="none" xmlns="http://www.w3.org/2000/svg">
<g clip-path="url(#clip0_434_5)">
<path d="M18.5214 18.1352C16.812 19.4382 14.7305 20.1601 12.5814 20.1952C5.58142 20.1952 1.58142 12.1952 1.58142 12.1952C2.82531 9.87711 4.55056 7.85182 6.64142 6.25522M10.4814 4.43522C11.1698 4.27409 11.8745 4.19355 12.5814 4.19522C19.5814 4.19522 23.5814 12.1952 23.5814 12.1952C22.9744 13.3308 22.2505 14.4 21.4214 15.3852M14.7014 14.3152C14.4268 14.61 14.0956 14.8464 13.7276 15.0103C13.3596 15.1743 12.9623 15.2625 12.5595 15.2696C12.1567 15.2767 11.7566 15.2026 11.383 15.0517C11.0095 14.9008 10.6701 14.6762 10.3853 14.3914C10.1004 14.1065 9.87581 13.7672 9.72493 13.3936C9.57405 13.0201 9.49995 12.6199 9.50705 12.2171C9.51416 11.8143 9.60233 11.4171 9.7663 11.0491C9.93027 10.6811 10.1667 10.3499 10.4614 10.0752" stroke="black" stroke-width="2" stroke-linecap="round" stroke-linejoin="round"/>
<path d="M1.58142 1.19522L23.5814 23.1952" stroke="black" stroke-width="2" stroke-linecap="round" stroke-linejoin="round"/>
</g>
<defs>
<clipPath id="clip0_434_5">
<rect width="24" height="24" fill="white" transform="translate(0.581421 0.195221)"/>
</clipPath>
</defs>
</svg>
